# xmcd
#
# Track frame offsets:
# 150
# 12540
# 24576
# 32421
# 42148
# 52497
# 60113
# 70312
# 82126
# 94517
# 106530
# 117946
# 129982
# 139899
# 148171
# 159321
# 172077
# 182819
#
# Disc length: 2574 seconds
#
#
# Revision: 0
# Processed by: cddbd v1.5.2PL0 Copyright (c) Steve Scherf et al.
# Submitted via: FreeRIP 2.945 
#
DISCID=f50a0c12
DTITLE=Johnny Cash - 18 Great Hits - Johnny Cash - 18 Great Hits
DYEAR=1900
DGENRE=Country
TTITLE0=I walk the line
TTITLE1=You're the nearest thing to heaven
TTITLE2=Sugartime
TTITLE3=Born to lose
TTITLE4=You win again
TTITLE5=Hey, good lookin
TTITLE6=The ways of a woman in love
TTITLE7=Thanks a lot
TTITLE8=Give my love to Rose
TTITLE9=Home of the blues
TTITLE10=Big river
TTITLE11=Goodnight Irene
TTITLE12=Ballad of a teenage queen
TTITLE13=Guess things happen that way
TTITLE14=Cry, cry, cry
TTITLE15=Folsom Prison blues
TTITLE16=Trai of love
TTITLE17=There you go
EXTD=
EXTT0=
EXTT1=
EXTT2=
EXTT3=
EXTT4=
EXTT5=
EXTT6=
EXTT7=
EXTT8=
EXTT9=
EXTT10=
EXTT11=
EXTT12=
EXTT13=
EXTT14=
EXTT15=
EXTT16=
EXTT17=
PLAYORDER=
